#!OML:ASF F:\VICON\USERDATA\INSTALL\rory3\rory3.ASF
:FULLY-SPECIFIED
:DEGREES
95
root 0.816462 17.9409 -0.559191 1.30063 -31.0387 1.89719
lowerback -0.0181779 -1.35957 -4.03019
upperback 0.449824 -1.81281 1.90082
thorax 0.659785 -0.933578 4.20584
lowerneck -13.4403 1.60078 -10.6635
upperneck 25.5549 3.63264 4.24199
head 10.0843 1.08607 3.74639
rclavicle -8.67695e-014 3.18055e-015
rhumerus -40.6844 -18.1988 -66.1559
rradius 36.561
rwrist 13.1391
rhand -26.9119 8.71824
rfingers 7.12502
rthumb -0.33502 -21.2612
lclavicle -8.67695e-014 3.18055e-015
lhumerus 0.773741 -26.0639 76.7913
lradius 117.24
lwrist -2.38267
lhand -26.3863 38.9416
lfingers 7.12502
lthumb 0.172608 68.9213
rfemur -9.94097 3.56042 9.88984
rtibia 23.8504
rfoot -15.0287 -10.401
rtoes 0.411754
lfemur -1.04552 2.06233 -24.3427
ltibia 14.0408
lfoot -10.4346 6.46926
ltoes -12.0452
96
root 0.818503 17.9422 -0.55972 1.31236 -31.0298 1.93262
lowerback -0.0984727 -1.41019 -4.0716
upperback 0.465391 -1.87727 1.90439
thorax 0.729002 -0.968063 4.22974
lowerneck -13.7129 1.59984 -10.5303
upperneck 25.7342 3.65559 4.16132
head 10.2049 1.09274 3.71052
rclavicle -7.53891e-014 7.95139e-016
rhumerus -40.4537 -18.1152 -66.3203
rradius 36.6085
rwrist 12.9798
rhand -26.4601 9.91993
rfingers 7.12502
rthumb 0.101374 -20.0598
lclavicle -7.53891e-014 7.95139e-016
lhumerus 1.13365 -25.9406 76.5555
lradius 117.139
lwrist -2.37348
lhand -26.4504 38.9131
lfingers 7.12502
lthumb 0.110694 68.8928
rfemur -9.99326 3.48414 9.84664
rtibia 23.8748
rfoot -14.992 -10.3449
rtoes 0.0415185
lfemur -1.06984 2.01617 -24.3859
ltibia 14.0105
lfoot -10.4001 6.49658
ltoes -11.9285
97
root 0.820197 17.9422 -0.560401 1.27207 -31.0399 1.99523
lowerback -0.151623 -1.41902 -4.12062
upperback 0.507087 -1.88631 1.86989
thorax 0.803118 -0.975311 4.21945
lowerneck -13.8346 1.5779 -10.4619
upperneck 25.7161 3.61638 4.18794
head 10.2251 1.08578 3.70652
rclavicle -1.53064e-014 -3.97569e-015
rhumerus -40.2557 -18.2077 -66.4367
rradius 36.6463
rwrist 12.8769
rhand -26.3833 10.3113
rfingers 7.12502
rthumb 0.175569 -19.6684
lclavicle -1.53064e-014 -3.97569e-015
lhumerus 1.5949 -25.921 76.2547
lradius 117.014
lwrist -2.42262
lhand -26.7784 39.0129
lfingers 7.12502
lthumb -0.206091 68.9926
rfemur -10.0139 3.42364 9.78054
rtibia 23.9078
rfoot -14.9611 -10.273
rtoes -0.133382
lfemur -1.03401 1.99149 -24.452
ltibia 13.9444
lfoot -10.3697 6.52031
ltoes -11.8466
98
root 0.821531 17.9411 -0.556447 1.21752 -31.0768 2.04792
lowerback -0.226213 -1.41234 -4.13851
upperback 0.543082 -1.87404 1.84495
thorax 0.880478 -0.971723 4.20133
lowerneck -13.8665 1.57168 -10.4664
upperneck 25.6617 3.58621 4.28872
head 10.2102 1.0862 3.73886
rclavicle 8.94531e-015 -1.51076e-014
rhumerus -40.1166 -18.4091 -66.3776
rradius 36.6127
rwrist 13.0117
rhand -26.7116 9.61458
rfingers 7.12502
rthumb -0.141547 -20.3651
lclavicle 8.94531e-015 -1.51076e-014
lhumerus 2.05361 -25.9384 76.0018
lradius 116.853
lwrist -2.74688
lhand -27.0869 39.3648
lfingers 7.12502
lthumb -0.503994 69.344
rfemur -9.98734 3.41958 9.71847
rtibia 23.9269
rfoot -15.0097 -10.2088
rtoes 0.14485
lfemur -0.958721 1.98916 -24.5179
ltibia 13.8848
lfoot -10.3587 6.55863
ltoes -11.6477
99
root 0.822487 17.9417 -0.554201 1.19801 -31.1142 2.07363
lowerback -0.262995 -1.41589 -4.14944
upperback 0.517235 -1.87763 1.86
thorax 0.875778 -0.97303 4.22247
lowerneck -13.8341 1.59897 -10.546
upperneck 25.638 3.61261 4.3942
head 10.1881 1.10437 3.79132
rclavicle 2.05494e-014 -1.11319e-014
rhumerus -40.0312 -18.4514 -66.3001
rradius 36.6008
rwrist 13.1948
rhand -26.9299 9.2439
rfingers 7.12502
rthumb -0.352402 -20.7356
lclavicle 2.05494e-014 -1.11319e-014
lhumerus 2.41053 -25.8964 75.8038
lradius 116.698
lwrist -3.00776
lhand -27.2606 39.4842
lfingers 7.12502
lthumb -0.671812 69.4629
rfemur -9.98845 3.43223 9.6834
rtibia 23.9382
rfoot -15.0462 -10.1804
rtoes 0.270979
lfemur -0.928635 1.99132 -24.5551
ltibia 13.8618
lfoot -10.3448 6.60756
ltoes -11.7625
100
root 0.823634 17.9409 -0.554516 1.17701 -31.1401 2.08554
lowerback -0.21621 -1.43155 -4.173
upperback 0.440705 -1.90102 1.8981
thorax 0.77533 -0.981079 4.2774
lowerneck -13.7051 1.61812 -10.5802
upperneck 25.5748 3.63782 4.36826
head 10.1384 1.1117 3.78525
rclavicle 1.04362e-014 0
rhumerus -39.9798 -18.323 -66.2968
rradius 36.6761
rwrist 13.1602
rhand -26.4698 10.0747
rfingers 7.12502
rthumb 0.092029 -19.905
lclavicle 1.04362e-014 0
lhumerus 2.64265 -25.7894 75.643
lradius 116.579
lwrist -2.98363
lhand -27.5845 39.189
lfingers 7.12502
lthumb -0.984644 69.1665
rfemur -9.99357 3.40723 9.66532
rtibia 23.9478
rfoot -14.9584 -10.1507
rtoes -0.00548886
lfemur -0.909676 2.01423 -24.5699
ltibia 13.8376
lfoot -10.3149 6.6219
ltoes -11.6723
101
root 0.82459 17.9403 -0.555222 1.14214 -31.1275 2.10189
lowerback -0.147498 -1.45072 -4.22321
upperback 0.374188 -1.92978 1.94096
thorax 0.67458 -0.992113 4.3528
lowerneck -13.6914 1.62877 -10.5515
upperneck 25.5905 3.662 4.29925
head 10.1423 1.11654 3.75871
rclavicle 1.14227e-013 5.56597e-015
rhumerus -39.9674 -18.162 -66.3008
rradius 36.8262
rwrist 13.0362
rhand -25.9069 10.7579
rfingers 7.12502
rthumb 0.635711 -19.2209
lclavicle 1.14227e-013 5.56597e-015
lhumerus 2.95948 -25.6731 75.4981
lradius 116.435
lwrist -2.90358
lhand -27.7769 38.9165
lfingers 7.12502
lthumb -1.17044 68.8931
rfemur -9.9692 3.37999 9.65036
rtibia 23.9456
rfoot -14.9032 -10.1261
rtoes 0.154905
lfemur -0.891675 2.00837 -24.5882
ltibia 13.8379
lfoot -10.2779 6.63345
ltoes -11.487
102
root 0.825448 17.9395 -0.555683 1.09599 -31.0869 2.14384
lowerback -0.123012 -1.47133 -4.2752
upperback 0.353916 -1.95812 1.93646
thorax 0.644647 -1.00536 4.37816
lowerneck -13.785 1.65332 -10.5326
upperneck 25.6451 3.67634 4.40548
head 10.1752 1.13587 3.79934
rclavicle 2.23136e-014 1.11319e-014
rhumerus -39.9472 -18.0798 -66.3688
rradius 36.986
rwrist 13.0685
rhand -25.7702 10.8487
rfingers 7.12502
rthumb 0.767694 -19.1297
lclavicle 2.23136e-014 1.11319e-014
lhumerus 3.43256 -25.5338 75.2614
lradius 116.251
lwrist -2.78972
lhand -27.8052 38.6012
lfingers 7.12502
lthumb -1.19779 68.5775
rfemur -9.92841 3.37112 9.6107
rtibia 23.9403
rfoot -14.9225 -10.1434
rtoes 0.72458
lfemur -0.877009 1.97968 -24.6243
ltibia 13.8616
lfoot -10.3305 6.5962
ltoes -11.3465
103
root 0.826523 17.94 -0.55778 1.09846 -31.0778 2.11597
lowerback -0.124764 -1.50392 -4.25384
upperback 0.361385 -2.00154 1.9308
thorax 0.657046 -1.02746 4.3594
lowerneck -13.9461 1.64931 -10.5592
upperneck 25.6719 3.65668 4.56295
head 10.2116 1.14276 3.86288
rclavicle -4.008e-014 -2.38542e-015
rhumerus -39.799 -18.0286 -66.5132
rradius 37.0503
rwrist 13.2145
rhand -25.8625 10.898
rfingers 7.12502
rthumb 0.678545 -19.0807
lclavicle -4.008e-014 -2.38542e-015
lhumerus 3.92533 -25.3345 74.9197
lradius 116.073
lwrist -2.60532
lhand -27.8117 38.2719
lfingers 7.12502
lthumb -1.20409 68.2483
rfemur -9.91393 3.42277 9.64232
rtibia 23.9309
rfoot -14.9457 -10.2174
rtoes 1.01627
lfemur -0.889566 1.98106 -24.5892
ltibia 13.8922
lfoot -10.3817 6.57012
ltoes -11.4373
